{
	"asset":{
		"generator":"Khronos glTF Blender I/O v4.2.70",
		"version":"2.0"
	},
	"extensionsUsed":[
		"KHR_lights_punctual"
	],
	"extensionsRequired":[
		"KHR_lights_punctual"
	],
	"extensions":{
		"KHR_lights_punctual":{
			"lights":[
				{
					"color":[
						1,
						1,
						1
					],
					"intensity":54351.41306588226,
					"type":"point",
					"name":"Light"
				}
			]
		}
	},
	"scene":0,
	"scenes":[
		{
			"name":"Scene",
			"nodes":[
				0,
				1,
				2,
				3,
				4,
				5,
				6,
				7,
				8,
				9,
				10,
				11,
				12,
				13
			]
		}
	],
	"nodes":[
		{
			"mesh":0,
			"name":"Cube"
		},
		{
			"extensions":{
				"KHR_lights_punctual":{
					"light":0
				}
			},
			"name":"Light",
			"rotation":[
				-0.23904815316200256,
				0.828132688999176,
				0.12528195977210999,
				0.4912806749343872
			],
			"translation":[
				4.076245307922363,
				5.903861999511719,
				-1.0054539442062378
			]
		},
		{
			"camera":0,
			"name":"Camera",
			"rotation":[
				-0.20997299253940582,
				0.3857799470424652,
				0.09062844514846802,
				0.8937962055206299
			],
			"translation":[
				7.358891487121582,
				4.958309173583984,
				6.925790786743164
			]
		},
		{
			"mesh":0,
			"name":"Cube.001",
			"translation":[
				0,
				0,
				-2.828019142150879
			]
		},
		{
			"mesh":0,
			"name":"Cube.002",
			"translation":[
				0,
				0,
				-5.916556358337402
			]
		},
		{
			"mesh":0,
			"name":"Cube.003",
			"translation":[
				0,
				0,
				2.9231653213500977
			]
		},
		{
			"mesh":0,
			"name":"Cube.004",
			"translation":[
				-4.606021404266357,
				0,
				0
			]
		},
		{
			"mesh":0,
			"name":"Cube.005",
			"translation":[
				-4.606021404266357,
				0,
				-2.828019142150879
			]
		},
		{
			"mesh":0,
			"name":"Cube.006",
			"translation":[
				-4.606021404266357,
				0,
				-5.916556358337402
			]
		},
		{
			"mesh":0,
			"name":"Cube.007",
			"translation":[
				-4.606021404266357,
				0,
				2.9231653213500977
			]
		},
		{
			"mesh":0,
			"name":"Cube.008",
			"translation":[
				-10.916217803955078,
				0,
				0
			]
		},
		{
			"mesh":0,
			"name":"Cube.009",
			"translation":[
				-10.916217803955078,
				0,
				-2.828019142150879
			]
		},
		{
			"mesh":0,
			"name":"Cube.010",
			"translation":[
				-10.916217803955078,
				0,
				-5.916556358337402
			]
		},
		{
			"mesh":0,
			"name":"Cube.011",
			"translation":[
				-10.916217803955078,
				0,
				2.9231653213500977
			]
		}
	],
	"cameras":[
		{
			"name":"Camera",
			"perspective":{
				"aspectRatio":1.7777777777777777,
				"yfov":0.39959652046304894,
				"zfar":100,
				"znear":0.10000000149011612
			},
			"type":"perspective"
		}
	],
	"materials":[
		{
			"doubleSided":true,
			"name":"Material",
			"normalTexture":{
				"index":0
			},
			"pbrMetallicRoughness":{
				"baseColorTexture":{
					"index":1
				},
				"metallicFactor":0.75,
				"roughnessFactor":0.25
			}
		}
	],
	"meshes":[
		{
			"name":"Cube",
			"primitives":[
				{
					"attributes":{
						"POSITION":0,
						"NORMAL":1,
						"TEXCOORD_0":2
					},
					"indices":3,
					"material":0
				}
			]
		}
	],
	"textures":[
		{
			"sampler":0,
			"source":0
		},
		{
			"sampler":0,
			"source":1
		}
	],
	"images":[
		{
			"mimeType":"image/png",
			"name":"metalbox_normal",
			"uri":"metalbox_normal.png"
		},
		{
			"mimeType":"image/png",
			"name":"metalbox_diffuse",
			"uri":"metalbox_diffuse.png"
		}
	],
	"accessors":[
		{
			"bufferView":0,
			"componentType":5126,
			"count":24,
			"max":[
				1,
				1,
				1
			],
			"min":[
				-1,
				-1,
				-1
			],
			"type":"VEC3"
		},
		{
			"bufferView":1,
			"componentType":5126,
			"count":24,
			"type":"VEC3"
		},
		{
			"bufferView":2,
			"componentType":5126,
			"count":24,
			"type":"VEC2"
		},
		{
			"bufferView":3,
			"componentType":5123,
			"count":36,
			"type":"SCALAR"
		}
	],
	"bufferViews":[
		{
			"buffer":0,
			"byteLength":288,
			"byteOffset":0,
			"target":34962
		},
		{
			"buffer":0,
			"byteLength":288,
			"byteOffset":288,
			"target":34962
		},
		{
			"buffer":0,
			"byteLength":192,
			"byteOffset":576,
			"target":34962
		},
		{
			"buffer":0,
			"byteLength":72,
			"byteOffset":768,
			"target":34963
		}
	],
	"samplers":[
		{
			"magFilter":9729,
			"minFilter":9987
		}
	],
	"buffers":[
		{
			"byteLength":840,
			"uri":"scene.bin"
		}
	]
}
