#define simulant_icon_vmu_width 48
#define simulant_icon_vmu_height 32
static unsigned char simulant_icon_vmu_bits[] = {
   0x00, 0x00, 0x00, 0x00, 0x00, 0x00, 0x00, 0x00, 0x00, 0x00, 0x00, 0x00,
   0x00, 0x00, 0x00, 0x00, 0x0c, 0x00, 0x00, 0x00, 0x00, 0x80, 0x0b, 0x00,
   0x00, 0x00, 0x00, 0x70, 0x05, 0x00, 0x00, 0x00, 0x00, 0xae, 0x06, 0x00,
   0x00, 0x00, 0xc0, 0x55, 0x03, 0x00, 0x00, 0x00, 0xb8, 0xaa, 0x02, 0x00,
   0x00, 0x00, 0x57, 0x55, 0x01, 0x00, 0x00, 0xc0, 0xaf, 0xaa, 0x01, 0x00,
   0x00, 0x40, 0xfe, 0xd7, 0x00, 0x00, 0x00, 0x80, 0xf8, 0x7f, 0x00, 0x00,
   0x00, 0x00, 0xc1, 0xff, 0x03, 0x00, 0x00, 0x00, 0x02, 0xfe, 0x07, 0x00,
   0x00, 0x00, 0x04, 0xf0, 0x07, 0x00, 0x00, 0x00, 0x0e, 0x80, 0x0f, 0x00,
   0x00, 0x00, 0x1f, 0x00, 0x0c, 0x00, 0x00, 0x00, 0x1f, 0x00, 0x04, 0x00,
   0x00, 0x80, 0x3f, 0x00, 0x03, 0x00, 0x00, 0x80, 0x7f, 0x80, 0x00, 0x00,
   0x00, 0x00, 0xff, 0x40, 0x00, 0x00, 0x00, 0x00, 0xfa, 0x31, 0x00, 0x00,
   0x00, 0x00, 0xd5, 0x0b, 0x00, 0x00, 0x00, 0x80, 0xaa, 0x07, 0x00, 0x00,
   0x00, 0x40, 0x75, 0x00, 0x00, 0x00, 0x00, 0xa0, 0x0f, 0x00, 0x00, 0x00,
   0x00, 0xf0, 0x00, 0x00, 0x00, 0x00, 0x00, 0x18, 0x00, 0x00, 0x00, 0x00,
   0x00, 0x00, 0x00, 0x00, 0x00, 0x00, 0x00, 0x00, 0x00, 0x00, 0x00, 0x00,
   0x00, 0x00, 0x00, 0x00, 0x00, 0x00, 0x00, 0x00, 0x00, 0x00, 0x00, 0x00 };
